# xmcd CD database file generated by OrangeCD 6.0
#
# Track frame offsets:
#	150
#	12410
#	27142
#	41372
#	55982
#	65762
#	78132
#	94215
#	109090
#	124860
#	143195
#	154635
#	168048
#	182943
#	195873
#	209213
#
# Disc length: 2980 seconds
#
# Revision: 0
# Processed by: cddbd v1.5.2PL0 Copyright (c) Steve Scherf et al.
# Submitted via: OrangeCD 6.0
#
DISCID=d60ba210
DTITLE=Jimmy Reed - An Introduction to Jimmy Reed
DYEAR=2006
DGENRE=
TTITLE0=Why Can't I Come In
TTITLE1=Shame, Shame, Shame
TTITLE2=I'll Be Home Someday
TTITLE3=Run Here To Me Baby
TTITLE4=Poor Country Boy
TTITLE5=Texas Is So Doggone Big
TTITLE6=My Baby Told Me
TTITLE7=Life Is Funny
TTITLE8=Just Can't Sleep At Night
TTITLE9=Five Years of Good Lovin'
TTITLE10=I Got To Keep Rolling
TTITLE11=I'm Leavin'
TTITLE12=If You Don't Want Me Baby
TTITLE13=When I woke Up This Morning
TTITLE14=If The Four Winds Don't Change
TTITLE15=When Two Peaople Are In Love
EXTD=
EXTT0=
EXTT1=
EXTT2=
EXTT3=
EXTT4=
EXTT5=
EXTT6=
EXTT7=
EXTT8=
EXTT9=
EXTT10=
EXTT11=
EXTT12=
EXTT13=
EXTT14=
EXTT15=
PLAYORDER=
